<svg width="74" height="57" viewBox="0 0 74 57" fill="none" xmlns="http://www.w3.org/2000/svg">
<path d="M73.3623 1.79474C72.6355 0.669497 71.4 0 70.0596 0H47.8208H26.1836H3.94085C2.60443 0 1.3649 0.669497 0.638147 1.79474C-0.0926472 2.91594 -0.201661 4.31947 0.343407 5.5415L22.2794 54.6689C22.9213 56.1087 24.3022 57 25.8768 57C27.4514 57 28.8323 56.1046 29.4742 54.6689L33.8953 44.7716L38.5466 34.3581L51.4142 5.5415C51.8018 4.67035 51.8543 3.71046 51.5878 2.82318H70.0555C70.6006 2.82318 70.8913 3.17809 70.9923 3.33135C71.0932 3.48461 71.2991 3.89196 71.077 4.39206L49.1371 53.5154C48.8706 54.1123 48.3376 54.1768 48.1196 54.1768C47.9016 54.1768 47.3686 54.1123 47.1021 53.5154L40.1293 37.8992L38.5668 41.3314L44.5221 54.6689C45.1641 56.1087 46.545 57 48.1196 57C49.6983 57 51.0751 56.1046 51.717 54.6689L73.653 5.5415C74.2021 4.31543 74.0931 2.91594 73.3623 1.79474ZM26.8983 53.5154C26.6318 54.1123 26.0989 54.1768 25.8808 54.1768C25.6628 54.1768 25.1299 54.1123 24.8634 53.5154L2.92339 4.38803C2.70133 3.89196 2.90724 3.48461 3.00818 3.33135C3.10508 3.17809 3.39579 2.82318 3.94085 2.82318H22.4086C22.1461 3.71046 22.1946 4.67035 22.5862 5.5415L35.4538 34.3581L26.8983 53.5154ZM48.8342 4.38803L37.0002 30.8937L25.1662 4.38803C24.9441 3.88792 25.15 3.48058 25.251 3.32732C25.3479 3.17809 25.6386 2.82318 26.1836 2.82318H47.8168C48.3618 2.82318 48.6525 3.17809 48.7495 3.33135C48.8504 3.48461 49.0563 3.89196 48.8342 4.38803Z" fill="#0C263A"/>
</svg>
