<svg width="43" height="110" viewBox="0 0 43 110" fill="none" xmlns="http://www.w3.org/2000/svg">
<rect width="3.20898" height="3.20898" transform="matrix(-4.37114e-08 1 1 4.37114e-08 0.509766 0)" fill="#B5B8D1" fill-opacity="0.35"/>
<rect width="3.20898" height="3.20898" transform="matrix(-4.37114e-08 1 1 4.37114e-08 0.509766 28.8809)" fill="#B5B8D1" fill-opacity="0.35"/>
<rect width="3.20898" height="3.20898" transform="matrix(-4.37114e-08 1 1 4.37114e-08 0.509766 57.7637)" fill="#B5B8D1" fill-opacity="0.35"/>
<rect width="3.20898" height="3.20898" transform="matrix(-4.37114e-08 1 1 4.37114e-08 0.509766 86.6445)" fill="#B5B8D1" fill-opacity="0.35"/>
<rect width="3.20898" height="3.20898" transform="matrix(-4.37114e-08 1 1 4.37114e-08 0.509766 9.62695)" fill="#B5B8D1" fill-opacity="0.35"/>
<rect width="3.20898" height="3.20898" transform="matrix(-4.37114e-08 1 1 4.37114e-08 0.509766 38.5078)" fill="#B5B8D1" fill-opacity="0.35"/>
<rect width="3.20898" height="3.20898" transform="matrix(-4.37114e-08 1 1 4.37114e-08 0.509766 67.3877)" fill="#B5B8D1" fill-opacity="0.35"/>
<rect width="3.20898" height="3.20898" transform="matrix(-4.37114e-08 1 1 4.37114e-08 0.509766 96.2715)" fill="#B5B8D1" fill-opacity="0.35"/>
<rect width="3.20898" height="3.20898" transform="matrix(-4.37114e-08 1 1 4.37114e-08 0.509766 19.2539)" fill="#B5B8D1" fill-opacity="0.35"/>
<rect width="3.20898" height="3.20898" transform="matrix(-4.37114e-08 1 1 4.37114e-08 0.509766 48.1348)" fill="#B5B8D1" fill-opacity="0.35"/>
<rect width="3.20898" height="3.20898" transform="matrix(-4.37114e-08 1 1 4.37114e-08 0.509766 77.0166)" fill="#B5B8D1" fill-opacity="0.35"/>
<rect width="3.20898" height="3.20898" transform="matrix(-4.37114e-08 1 1 4.37114e-08 0.509766 105.896)" fill="#B5B8D1" fill-opacity="0.35"/>
<rect width="3.20898" height="3.20898" transform="matrix(-4.37114e-08 1 1 4.37114e-08 39.0156 0)" fill="#B5B8D1" fill-opacity="0.35"/>
<rect width="3.20898" height="3.20898" transform="matrix(-4.37114e-08 1 1 4.37114e-08 39.0156 28.8809)" fill="#B5B8D1" fill-opacity="0.35"/>
<rect width="3.20898" height="3.20898" transform="matrix(-4.37114e-08 1 1 4.37114e-08 39.0156 57.7637)" fill="#B5B8D1" fill-opacity="0.35"/>
<rect width="3.20898" height="3.20898" transform="matrix(-4.37114e-08 1 1 4.37114e-08 39.0156 86.6445)" fill="#B5B8D1" fill-opacity="0.35"/>
<rect width="3.20898" height="3.20898" transform="matrix(-4.37114e-08 1 1 4.37114e-08 39.0156 9.62695)" fill="#B5B8D1" fill-opacity="0.35"/>
<rect width="3.20898" height="3.20898" transform="matrix(-4.37114e-08 1 1 4.37114e-08 39.0156 38.5078)" fill="#B5B8D1" fill-opacity="0.35"/>
<rect width="3.20898" height="3.20898" transform="matrix(-4.37114e-08 1 1 4.37114e-08 39.0156 67.3877)" fill="#B5B8D1" fill-opacity="0.35"/>
<rect width="3.20898" height="3.20898" transform="matrix(-4.37114e-08 1 1 4.37114e-08 39.0156 96.2715)" fill="#B5B8D1" fill-opacity="0.35"/>
<rect width="3.20898" height="3.20898" transform="matrix(-4.37114e-08 1 1 4.37114e-08 39.0156 19.2539)" fill="#B5B8D1" fill-opacity="0.35"/>
<rect width="3.20898" height="3.20898" transform="matrix(-4.37114e-08 1 1 4.37114e-08 39.0156 48.1348)" fill="#B5B8D1" fill-opacity="0.35"/>
<rect width="3.20898" height="3.20898" transform="matrix(-4.37114e-08 1 1 4.37114e-08 39.0156 77.0166)" fill="#B5B8D1" fill-opacity="0.35"/>
<rect width="3.20898" height="3.20898" transform="matrix(-4.37114e-08 1 1 4.37114e-08 39.0156 105.896)" fill="#B5B8D1" fill-opacity="0.35"/>
<rect width="3.20898" height="3.20898" transform="matrix(-4.37114e-08 1 1 4.37114e-08 29.3887 0)" fill="#B5B8D1" fill-opacity="0.35"/>
<rect width="3.20898" height="3.20898" transform="matrix(-4.37114e-08 1 1 4.37114e-08 29.3887 28.8809)" fill="#B5B8D1" fill-opacity="0.35"/>
<rect width="3.20898" height="3.20898" transform="matrix(-4.37114e-08 1 1 4.37114e-08 29.3887 57.7637)" fill="#B5B8D1" fill-opacity="0.35"/>
<rect width="3.20898" height="3.20898" transform="matrix(-4.37114e-08 1 1 4.37114e-08 29.3887 86.6445)" fill="#B5B8D1" fill-opacity="0.35"/>
<rect width="3.20898" height="3.20898" transform="matrix(-4.37114e-08 1 1 4.37114e-08 29.3887 9.62695)" fill="#B5B8D1" fill-opacity="0.35"/>
<rect width="3.20898" height="3.20898" transform="matrix(-4.37114e-08 1 1 4.37114e-08 29.3887 38.5078)" fill="#B5B8D1" fill-opacity="0.35"/>
<rect width="3.20898" height="3.20898" transform="matrix(-4.37114e-08 1 1 4.37114e-08 29.3887 67.3877)" fill="#B5B8D1" fill-opacity="0.35"/>
<rect width="3.20898" height="3.20898" transform="matrix(-4.37114e-08 1 1 4.37114e-08 29.3887 96.2715)" fill="#B5B8D1" fill-opacity="0.35"/>
<rect width="3.20898" height="3.20898" transform="matrix(-4.37114e-08 1 1 4.37114e-08 29.3887 19.2539)" fill="#B5B8D1" fill-opacity="0.35"/>
<rect width="3.20898" height="3.20898" transform="matrix(-4.37114e-08 1 1 4.37114e-08 29.3887 48.1348)" fill="#B5B8D1" fill-opacity="0.35"/>
<rect width="3.20898" height="3.20898" transform="matrix(-4.37114e-08 1 1 4.37114e-08 29.3887 77.0166)" fill="#B5B8D1" fill-opacity="0.35"/>
<rect width="3.20898" height="3.20898" transform="matrix(-4.37114e-08 1 1 4.37114e-08 29.3887 105.896)" fill="#B5B8D1" fill-opacity="0.35"/>
<rect width="3.20898" height="3.20898" transform="matrix(-4.37114e-08 1 1 4.37114e-08 19.7637 0)" fill="#B5B8D1" fill-opacity="0.35"/>
<rect width="3.20898" height="3.20898" transform="matrix(-4.37114e-08 1 1 4.37114e-08 19.7637 28.8809)" fill="#B5B8D1" fill-opacity="0.35"/>
<rect width="3.20898" height="3.20898" transform="matrix(-4.37114e-08 1 1 4.37114e-08 19.7637 57.7637)" fill="#B5B8D1" fill-opacity="0.35"/>
<rect width="3.20898" height="3.20898" transform="matrix(-4.37114e-08 1 1 4.37114e-08 19.7637 86.6445)" fill="#B5B8D1" fill-opacity="0.35"/>
<rect width="3.20898" height="3.20898" transform="matrix(-4.37114e-08 1 1 4.37114e-08 19.7637 9.62695)" fill="#B5B8D1" fill-opacity="0.35"/>
<rect width="3.20898" height="3.20898" transform="matrix(-4.37114e-08 1 1 4.37114e-08 19.7637 38.5078)" fill="#B5B8D1" fill-opacity="0.35"/>
<rect width="3.20898" height="3.20898" transform="matrix(-4.37114e-08 1 1 4.37114e-08 19.7637 67.3877)" fill="#B5B8D1" fill-opacity="0.35"/>
<rect width="3.20898" height="3.20898" transform="matrix(-4.37114e-08 1 1 4.37114e-08 19.7637 96.2715)" fill="#B5B8D1" fill-opacity="0.35"/>
<rect width="3.20898" height="3.20898" transform="matrix(-4.37114e-08 1 1 4.37114e-08 19.7637 19.2539)" fill="#B5B8D1" fill-opacity="0.35"/>
<rect width="3.20898" height="3.20898" transform="matrix(-4.37114e-08 1 1 4.37114e-08 19.7637 48.1348)" fill="#B5B8D1" fill-opacity="0.35"/>
<rect width="3.20898" height="3.20898" transform="matrix(-4.37114e-08 1 1 4.37114e-08 19.7637 77.0166)" fill="#B5B8D1" fill-opacity="0.35"/>
<rect width="3.20898" height="3.20898" transform="matrix(-4.37114e-08 1 1 4.37114e-08 19.7637 105.896)" fill="#B5B8D1" fill-opacity="0.35"/>
<rect width="3.20898" height="3.20898" transform="matrix(-4.37114e-08 1 1 4.37114e-08 10.1367 0)" fill="#B5B8D1" fill-opacity="0.35"/>
<rect width="3.20898" height="3.20898" transform="matrix(-4.37114e-08 1 1 4.37114e-08 10.1367 28.8809)" fill="#B5B8D1" fill-opacity="0.35"/>
<rect width="3.20898" height="3.20898" transform="matrix(-4.37114e-08 1 1 4.37114e-08 10.1367 57.7637)" fill="#B5B8D1" fill-opacity="0.35"/>
<rect width="3.20898" height="3.20898" transform="matrix(-4.37114e-08 1 1 4.37114e-08 10.1367 86.6445)" fill="#B5B8D1" fill-opacity="0.35"/>
<rect width="3.20898" height="3.20898" transform="matrix(-4.37114e-08 1 1 4.37114e-08 10.1367 9.62695)" fill="#B5B8D1" fill-opacity="0.35"/>
<rect width="3.20898" height="3.20898" transform="matrix(-4.37114e-08 1 1 4.37114e-08 10.1367 38.5078)" fill="#B5B8D1" fill-opacity="0.35"/>
<rect width="3.20898" height="3.20898" transform="matrix(-4.37114e-08 1 1 4.37114e-08 10.1367 67.3877)" fill="#B5B8D1" fill-opacity="0.35"/>
<rect width="3.20898" height="3.20898" transform="matrix(-4.37114e-08 1 1 4.37114e-08 10.1367 96.2715)" fill="#B5B8D1" fill-opacity="0.35"/>
<rect width="3.20898" height="3.20898" transform="matrix(-4.37114e-08 1 1 4.37114e-08 10.1367 19.2539)" fill="#B5B8D1" fill-opacity="0.35"/>
<rect width="3.20898" height="3.20898" transform="matrix(-4.37114e-08 1 1 4.37114e-08 10.1367 48.1348)" fill="#B5B8D1" fill-opacity="0.35"/>
<rect width="3.20898" height="3.20898" transform="matrix(-4.37114e-08 1 1 4.37114e-08 10.1367 77.0166)" fill="#B5B8D1" fill-opacity="0.35"/>
<rect width="3.20898" height="3.20898" transform="matrix(-4.37114e-08 1 1 4.37114e-08 10.1367 105.896)" fill="#B5B8D1" fill-opacity="0.35"/>
</svg>
