<svg width="64" height="64" viewBox="0 0 64 64" fill="none" xmlns="http://www.w3.org/2000/svg">
<path d="M31.953 63.9023C14.3349 63.9023 0 49.5712 0 31.953C0 14.3349 14.3349 0 31.953 0C49.5712 0 63.9061 14.3349 63.9061 31.953C63.9061 49.5712 49.5712 63.9023 31.953 63.9023ZM31.953 2.62957C15.7849 2.62957 2.62957 15.7849 2.62957 31.953C2.62957 48.1211 15.7849 61.2765 31.953 61.2765C48.1211 61.2765 61.2765 48.1211 61.2765 31.953C61.2765 15.7849 48.1211 2.62957 31.953 2.62957Z" fill="#0C263A"/>
<path d="M31.9529 63.9023C26.4421 63.9023 21.3106 60.4914 17.5015 54.3044C13.8164 48.3127 11.7841 40.3752 11.7841 31.953C11.7841 23.5309 13.8126 15.5934 17.5015 9.60169C21.3106 3.41093 26.4421 0 31.9529 0C37.4637 0 42.5951 3.41093 46.4043 9.59793C50.0894 15.5896 52.1217 23.5271 52.1217 31.9493C52.1217 40.3714 50.0932 48.309 46.4043 54.3006C42.5914 60.4952 37.46 63.9023 31.9529 63.9023ZM31.9529 2.62957C22.2798 2.62957 14.4137 15.7849 14.4137 31.953C14.4137 48.1211 22.2798 61.2765 31.9491 61.2765C41.6184 61.2765 49.4846 48.1211 49.4846 31.953C49.4846 15.7849 41.6222 2.62957 31.9529 2.62957Z" fill="#0C263A"/>
<path d="M31.9529 64C26.4421 64 21.3106 60.5891 17.5015 54.4021C13.8164 48.4104 11.7841 40.4729 11.7841 32.0507C11.7841 23.6286 13.8126 15.691 17.5015 9.69936C21.3106 3.5086 26.4421 0.0976715 31.9529 0.0976715C37.4637 0.0976715 42.5951 3.5086 46.4043 9.69561C50.0894 15.6873 52.1217 23.6248 52.1217 32.047C52.1217 40.4691 50.0932 48.4067 46.4043 54.3983C42.5914 60.5928 37.46 64 31.9529 64ZM31.9529 2.72724C22.2836 2.72724 14.4174 15.8826 14.4174 32.0507C14.4174 48.2188 22.2836 61.3742 31.9529 61.3742C41.6222 61.3742 49.4884 48.2188 49.4884 32.0507C49.4884 15.8826 41.6222 2.72724 31.9529 2.72724Z" fill="#0C263A"/>
<path d="M31.953 52.118C23.5309 52.118 15.5934 50.0895 9.60169 46.4006C3.41093 42.5915 0 37.46 0 31.953C0 26.4459 3.41093 21.3107 9.59793 17.5016C15.5896 13.8164 23.5271 11.7842 31.9493 11.7842C40.3714 11.7842 48.309 13.8127 54.3006 17.5016C60.4914 21.3107 63.8986 26.4421 63.8986 31.953C63.8986 37.4638 60.4876 42.5952 54.3006 46.4043C48.3127 50.0895 40.3752 52.118 31.953 52.118ZM31.953 14.4137C15.7849 14.4137 2.62957 22.2799 2.62957 31.953C2.62957 41.626 15.7849 49.4885 31.953 49.4885C48.1211 49.4885 61.2765 41.6223 61.2765 31.953C61.2765 22.2837 48.1211 14.4137 31.953 14.4137Z" fill="#0C263A"/>
</svg>
