<svg width="51" height="64" viewBox="0 0 51 64" fill="none" xmlns="http://www.w3.org/2000/svg">
<path d="M48.9908 19.2833L30.8688 1.16126C29.7227 0.0152296 28.085 -0.310094 26.5878 0.310978C25.0906 0.93205 24.1627 2.32207 24.1627 3.94129V6.54018L18.7874 1.16126C17.6414 0.0152296 16.0037 -0.310094 14.5065 0.310978C13.0092 0.93205 12.0813 2.32207 12.0813 3.94129V6.54018L6.7061 1.16126C5.56007 0.0152296 3.92237 -0.310094 2.42514 0.310978C0.927911 0.928353 0 2.31837 0 3.9376V40.0781C0 41.8304 0.683919 43.4792 1.92237 44.7176L20.0444 62.8396C20.8059 63.6012 21.7856 64.0004 22.7985 64.0004C23.3087 64.0004 23.8263 63.9006 24.3253 63.6899C25.8226 63.0688 26.7505 61.6788 26.7505 60.0596V45.3794L36.244 54.8729V60.0596C36.244 60.8914 35.6118 61.2167 35.4159 61.298C35.22 61.3794 34.5434 61.5938 33.9556 61.006L28.4399 55.4903V59.1502L32.1257 62.8359C32.8872 63.5975 33.8669 63.9967 34.8799 63.9967C35.39 63.9967 35.9076 63.8969 36.4067 63.6862C37.9039 63.0651 38.8318 61.6751 38.8318 60.0559V57.457V53.7971V23.9228C38.8318 22.1705 38.1479 20.5217 36.9094 19.2833L26.7505 9.12429V3.9376C26.7505 3.1058 27.3826 2.78048 27.5786 2.69915C27.7745 2.61782 28.451 2.4034 29.0388 2.9912L47.1608 21.1132C47.9113 21.8637 48.3253 22.8618 48.3253 23.9228V60.0633C48.3253 60.8951 47.6932 61.2204 47.4972 61.3017C47.305 61.3831 46.6248 61.5975 46.037 61.0097L40.5324 55.5051V59.165L44.207 62.8396C44.9686 63.6012 45.9482 64.0004 46.9612 64.0004C47.4714 64.0004 47.9889 63.9006 48.488 63.6899C49.9852 63.0688 50.9131 61.6788 50.9131 60.0596V23.9228C50.9094 22.1705 50.2292 20.5217 48.9908 19.2833ZM12.0813 12.4662V40.0781C12.0813 41.8304 12.7653 43.4792 14.0037 44.7176L24.1627 54.8766V60.0633C24.1627 60.8951 23.5305 61.2204 23.3346 61.3017C23.1386 61.3831 22.4621 61.5975 21.8743 61.0097L3.75231 42.8877C3.00185 42.1372 2.5878 41.1391 2.5878 40.0781V3.9376C2.5878 3.1095 3.21996 2.78048 3.4159 2.69915C3.60813 2.61782 4.28835 2.4034 4.87616 2.9912L22.9982 21.1132C23.7486 21.8637 24.1627 22.8618 24.1627 23.9228V40.0781V51.2167L15.8336 42.8877C15.0832 42.1372 14.6691 41.1391 14.6691 40.0781V15.054L12.0813 12.4662ZM35.0795 21.1132C35.8299 21.8637 36.244 22.8618 36.244 23.9228V51.2167L27.915 42.8877C27.1645 42.1372 26.7505 41.1391 26.7505 40.0781V23.9228V15.0799L24.1627 12.4921V18.6178L14.6691 9.12429V3.9376C14.6691 3.1058 15.3013 2.78048 15.4972 2.69915C15.5896 2.66218 15.7893 2.59194 16.0333 2.59194C16.3105 2.59194 16.647 2.67697 16.9575 2.9875L24.1627 10.1927V10.2149L26.7505 12.8027V12.7805L35.0795 21.1132Z" fill="#0C263A"/>
</svg>
