<svg width="222" height="45" viewBox="0 0 222 45" fill="none" xmlns="http://www.w3.org/2000/svg">
<path d="M56.6634 31.1235H68.3674V27.6695H61.0194V15.7235H56.6634V31.1235ZM81.791 31.1235H86.323L79.503 15.7235H75.213L68.415 31.1235H72.859L74.069 28.1315H80.581L81.791 31.1235ZM75.345 24.9195L77.325 19.9915L79.305 24.9195H75.345ZM97.9419 15.7235V23.9295L91.1439 15.7235H87.5579V31.1235H91.8259V22.9175L98.6239 31.1235H102.21V15.7235H97.9419ZM105.283 31.1235H112.565C117.669 31.1235 121.167 28.1535 121.167 23.4235C121.167 18.6935 117.669 15.7235 112.565 15.7235H105.283V31.1235ZM109.639 27.6475V19.1995H112.389C115.007 19.1995 116.767 20.7615 116.767 23.4235C116.767 26.0855 115.007 27.6475 112.389 27.6475H109.639ZM127.77 27.7575V24.9415H134.612V21.6855H127.77V19.0895H135.536V15.7235H123.458V31.1235H135.822V27.7575H127.77ZM147.766 31.1235H152.43L149.108 26.2835C151.022 25.3595 152.122 23.6875 152.122 21.4215C152.122 17.9015 149.482 15.7235 145.28 15.7235H138.24V31.1235H142.596V27.0315H144.972L147.766 31.1235ZM147.722 21.4215C147.722 22.8295 146.82 23.6655 145.016 23.6655H142.596V19.1555H145.016C146.82 19.1555 147.722 19.9915 147.722 21.4215ZM154.525 31.1235H166.229V27.6695H158.881V15.7235H154.525V31.1235ZM179.652 31.1235H184.184L177.364 15.7235H173.074L166.276 31.1235H170.72L171.93 28.1315H178.442L179.652 31.1235ZM173.206 24.9195L175.186 19.9915L177.166 24.9195H173.206ZM197.255 23.0935C198.575 22.4115 199.323 21.2235 199.323 19.7495C199.323 17.3735 197.343 15.7235 193.295 15.7235H185.419V31.1235H193.735C197.871 31.1235 200.071 29.5615 200.071 26.8995C200.071 25.0295 198.993 23.7095 197.255 23.0935ZM192.723 18.8695C194.175 18.8695 194.923 19.3755 194.923 20.3435C194.923 21.3335 194.175 21.8395 192.723 21.8395H189.731V18.8695H192.723ZM193.383 27.9775H189.731V24.8535H193.383C194.879 24.8535 195.671 25.3595 195.671 26.4155C195.671 27.4715 194.879 27.9775 193.383 27.9775Z" fill="#2A2D3A"/>
<g clip-path="url(#clip0)">
<path d="M40.3133 44.9998H12.3499C11.3647 44.9998 10.4363 44.5366 9.84519 43.7476L0.629521 31.4831C-0.0839694 30.5327 -0.200397 29.2596 0.33099 28.1958C0.862376 27.1319 1.94605 26.4595 3.1342 26.4595H40.3133C42.0448 26.4595 43.4479 27.864 43.4479 29.5973V41.8649C43.4479 43.5952 42.0448 44.9998 40.3133 44.9998ZM13.9142 38.7241H37.1758V32.7322H9.41232L13.9142 38.7241Z" fill="url(#paint0_linear)"/>
<path d="M13.3473 32.7354V37.9682L6.26916 28.5486V6.27573H13.3473V26.4597H19.6165V3.13787C19.6165 1.40457 18.2134 0 16.4819 0H3.13458C1.4031 0 0 1.40457 0 3.13787V29.5976C0 30.2789 0.220913 30.9394 0.629902 31.4833L9.84557 43.7508C10.4367 44.5398 11.3651 45.003 12.3503 45.003H16.4789C18.2104 45.003 19.6135 43.5984 19.6135 41.8651V32.7354H13.3473Z" fill="url(#paint1_linear)"/>
<path d="M39.3346 2.50977H27.7367C25.6798 2.50977 24.011 4.18031 24.011 6.23935V17.8495C24.011 19.9085 25.6798 21.579 27.7367 21.579H39.3346C41.3915 21.579 43.0603 19.9085 43.0603 17.8495V6.23636C43.0603 4.17732 41.3915 2.50977 39.3346 2.50977Z" fill="url(#paint2_linear)"/>
</g>
<defs>
<linearGradient id="paint0_linear" x1="1.06038" y1="35.7299" x2="43.8324" y2="35.7299" gradientUnits="userSpaceOnUse">
<stop offset="0.0903445" stop-color="#4158D0"/>
<stop offset="0.1497" stop-color="#4858CF"/>
<stop offset="0.2354" stop-color="#5B56CD"/>
<stop offset="0.337" stop-color="#7A55C9"/>
<stop offset="0.45" stop-color="#A652C4"/>
<stop offset="0.5283" stop-color="#C850C0"/>
<stop offset="0.8922" stop-color="#FFCC70"/>
</linearGradient>
<linearGradient id="paint1_linear" x1="9.80765" y1="44.6025" x2="9.80765" y2="7.01116" gradientUnits="userSpaceOnUse">
<stop offset="0.4139" stop-color="#FA709A"/>
<stop offset="0.8922" stop-color="#F7CE68"/>
</linearGradient>
<linearGradient id="paint2_linear" x1="44.5754" y1="-1.87109" x2="14.8094" y2="35.5661" gradientUnits="userSpaceOnUse">
<stop offset="0.3342" stop-color="#2BD2FF"/>
<stop offset="0.8922" stop-color="#2BFF88"/>
</linearGradient>
<clipPath id="clip0">
<rect width="43.4483" height="45" fill="white"/>
</clipPath>
</defs>
</svg>
