<svg width="178" height="40" viewBox="0 0 178 40" fill="none" xmlns="http://www.w3.org/2000/svg">
<g opacity="0.4">
<path d="M50.1494 27.5456H60.5079V24.4887H54.0046V13.916H50.1494V27.5456Z" fill="#B5B8D1"/>
<path d="M72.3883 27.5456H76.3993L70.3634 13.916H66.5665L60.55 27.5456H64.4831L65.554 24.8976H71.3174L72.3883 27.5456ZM66.6834 22.0549L68.4357 17.6934L70.1881 22.0549H66.6834Z" fill="#B5B8D1"/>
<path d="M86.6826 13.916V21.1787L80.666 13.916H77.4923V27.5456H81.2696V20.283L87.2862 27.5456H90.4599V13.916H86.6826Z" fill="#B5B8D1"/>
<path d="M93.1793 27.5456H99.6242C104.141 27.5456 107.237 24.9171 107.237 20.7308C107.237 16.5446 104.141 13.916 99.6242 13.916H93.1793V27.5456ZM97.0345 24.4692V16.9924H99.4684C101.785 16.9924 103.343 18.3749 103.343 20.7308C103.343 23.0868 101.785 24.4692 99.4684 24.4692H97.0345Z" fill="#B5B8D1"/>
<path d="M113.082 24.5666V22.0743H119.137V19.1926H113.082V16.8951H119.955V13.916H109.266V27.5456H120.208V24.5666H113.082Z" fill="#B5B8D1"/>
<path d="M130.779 27.5456H134.906L131.966 23.262C133.66 22.4443 134.634 20.9645 134.634 18.959C134.634 15.8436 132.297 13.916 128.578 13.916H122.348V27.5456H126.203V23.9241H128.306L130.779 27.5456ZM130.74 18.959C130.74 20.2051 129.941 20.945 128.345 20.945H126.203V16.9535H128.345C129.941 16.9535 130.74 17.6934 130.74 18.959Z" fill="#B5B8D1"/>
<path d="M136.761 27.5456H147.119V24.4887H140.616V13.916H136.761V27.5456Z" fill="#B5B8D1"/>
<path d="M159 27.5456H163.011L156.975 13.916H153.178L147.161 27.5456H151.094L152.165 24.8976H157.929L159 27.5456ZM153.295 22.0549L155.047 17.6934L156.799 22.0549H153.295Z" fill="#B5B8D1"/>
<path d="M174.579 20.4388C175.747 19.8352 176.409 18.7837 176.409 17.4792C176.409 15.3763 174.657 13.916 171.074 13.916H164.104V27.5456H171.464C175.124 27.5456 177.071 26.1632 177.071 23.8072C177.071 22.1522 176.117 20.984 174.579 20.4388ZM170.568 16.7004C171.853 16.7004 172.515 17.1482 172.515 18.0049C172.515 18.8811 171.853 19.3289 170.568 19.3289H167.92V16.7004H170.568ZM171.152 24.7613H167.92V21.9964H171.152C172.476 21.9964 173.177 22.4443 173.177 23.3789C173.177 24.3135 172.476 24.7613 171.152 24.7613Z" fill="#B5B8D1"/>
<g clip-path="url(#clip0)">
<path d="M35.679 39.8269H10.9302C10.0583 39.8269 9.23657 39.417 8.71343 38.7187L0.557178 27.864C-0.0742908 27.023 -0.177334 25.8962 0.292965 24.9547C0.763264 24.0131 1.72236 23.418 2.77392 23.418H35.679C37.2114 23.418 38.4532 24.6611 38.4532 26.1951V37.0524C38.4532 38.5838 37.2114 39.8269 35.679 39.8269ZM12.3146 34.2726H32.9021V28.9696H8.33032L12.3146 34.2726Z" fill="#B5B8D1"/>
<path d="M11.8129 28.9722V33.6034L5.54847 25.2667V5.55428H11.8129V23.4179H17.3614V2.77714C17.3614 1.2431 16.1196 0 14.5872 0H2.77423C1.2418 0 0 1.2431 0 2.77714V26.195C0 26.7981 0.195517 27.3826 0.557489 27.864L8.71373 38.7213C9.23687 39.4195 10.0586 39.8295 10.9305 39.8295H14.5845C16.117 39.8295 17.3588 38.5864 17.3588 37.0523V28.9722H11.8129Z" fill="#B5B8D1"/>
<path d="M34.8127 2.22119H24.5481C22.7276 2.22119 21.2507 3.69969 21.2507 5.52202V15.7974C21.2507 17.6198 22.7276 19.0983 24.5481 19.0983H34.8127C36.6331 19.0983 38.1101 17.6198 38.1101 15.7974V5.51938C38.1101 3.69704 36.6331 2.22119 34.8127 2.22119Z" fill="#B5B8D1"/>
</g>
</g>
<defs>
<clipPath id="clip0">
<rect width="38.4535" height="39.8268" fill="white"/>
</clipPath>
</defs>
</svg>
